<mxfile host="Electron" agent="Mozilla/5.0 (Macintosh; Intel Mac OS X 10_15_7) AppleWebKit/537.36 (KHTML, like Gecko) draw.io/25.0.2 Chrome/128.0.6613.186 Electron/32.2.5 Safari/537.36" version="25.0.2">
  <diagram name="Page-1" id="DwRVQ5qwj_7C9Eq-zhi5">
    <mxGraphModel dx="1500" dy="837" grid="0" gridSize="10" guides="1" tooltips="1" connect="1" arrows="1" fold="1" page="0" pageScale="1" pageWidth="1169" pageHeight="827" math="0" shadow="0">
      <root>
        <mxCell id="0" />
        <mxCell id="1" parent="0" />
        <mxCell id="ELKKb2H_4pnE-kFXE8SK-7" style="edgeStyle=none;curved=1;rounded=0;orthogonalLoop=1;jettySize=auto;html=1;fontSize=12;startSize=8;endSize=8;" edge="1" parent="1" source="ELKKb2H_4pnE-kFXE8SK-2" target="ELKKb2H_4pnE-kFXE8SK-3">
          <mxGeometry relative="1" as="geometry" />
        </mxCell>
        <mxCell id="ELKKb2H_4pnE-kFXE8SK-8" value="1:ItemSearch(itemName)" style="edgeLabel;html=1;align=center;verticalAlign=middle;resizable=0;points=[];fontSize=12;" vertex="1" connectable="0" parent="ELKKb2H_4pnE-kFXE8SK-7">
          <mxGeometry x="-0.729" relative="1" as="geometry">
            <mxPoint x="54" y="-12" as="offset" />
          </mxGeometry>
        </mxCell>
        <mxCell id="ELKKb2H_4pnE-kFXE8SK-2" value="Actor" style="shape=umlActor;verticalLabelPosition=bottom;verticalAlign=top;html=1;fillColor=#f8cecc;strokeColor=#b85450;" vertex="1" parent="1">
          <mxGeometry x="-145" y="427" width="30" height="60" as="geometry" />
        </mxCell>
        <mxCell id="ELKKb2H_4pnE-kFXE8SK-11" style="edgeStyle=none;curved=1;rounded=0;orthogonalLoop=1;jettySize=auto;html=1;exitX=1;exitY=0.75;exitDx=0;exitDy=0;entryX=0;entryY=0.75;entryDx=0;entryDy=0;fontSize=12;startSize=8;endSize=8;" edge="1" parent="1" source="ELKKb2H_4pnE-kFXE8SK-3" target="ELKKb2H_4pnE-kFXE8SK-5">
          <mxGeometry relative="1" as="geometry" />
        </mxCell>
        <mxCell id="ELKKb2H_4pnE-kFXE8SK-12" value="1.2: SearchItems(itemName)" style="edgeLabel;html=1;align=center;verticalAlign=middle;resizable=0;points=[];fontSize=12;" vertex="1" connectable="0" parent="ELKKb2H_4pnE-kFXE8SK-11">
          <mxGeometry x="-0.4698" y="1" relative="1" as="geometry">
            <mxPoint x="63" y="-11" as="offset" />
          </mxGeometry>
        </mxCell>
        <mxCell id="ELKKb2H_4pnE-kFXE8SK-3" value=":SearchForm" style="whiteSpace=wrap;html=1;align=center;fillColor=#ffe6cc;strokeColor=#d79b00;" vertex="1" parent="1">
          <mxGeometry x="66" y="437" width="100" height="40" as="geometry" />
        </mxCell>
        <mxCell id="ELKKb2H_4pnE-kFXE8SK-4" value=":SearchResults" style="whiteSpace=wrap;html=1;align=center;fillColor=#dae8fc;strokeColor=#6c8ebf;" vertex="1" parent="1">
          <mxGeometry x="222" y="512" width="100" height="40" as="geometry" />
        </mxCell>
        <mxCell id="ELKKb2H_4pnE-kFXE8SK-13" style="edgeStyle=none;curved=1;rounded=0;orthogonalLoop=1;jettySize=auto;html=1;fontSize=12;startSize=8;endSize=8;" edge="1" parent="1" source="ELKKb2H_4pnE-kFXE8SK-5" target="ELKKb2H_4pnE-kFXE8SK-6">
          <mxGeometry relative="1" as="geometry" />
        </mxCell>
        <mxCell id="ELKKb2H_4pnE-kFXE8SK-16" value="1.2.1: listResults()" style="edgeLabel;html=1;align=center;verticalAlign=middle;resizable=0;points=[];fontSize=12;" vertex="1" connectable="0" parent="ELKKb2H_4pnE-kFXE8SK-13">
          <mxGeometry x="-0.2286" y="1" relative="1" as="geometry">
            <mxPoint y="1" as="offset" />
          </mxGeometry>
        </mxCell>
        <mxCell id="ELKKb2H_4pnE-kFXE8SK-5" value=":ItemDatabase" style="whiteSpace=wrap;html=1;align=center;fillColor=#e1d5e7;strokeColor=#9673a6;" vertex="1" parent="1">
          <mxGeometry x="481" y="437" width="100" height="40" as="geometry" />
        </mxCell>
        <mxCell id="ELKKb2H_4pnE-kFXE8SK-17" style="edgeStyle=none;curved=1;rounded=0;orthogonalLoop=1;jettySize=auto;html=1;fontSize=12;startSize=8;endSize=8;" edge="1" parent="1" source="ELKKb2H_4pnE-kFXE8SK-6" target="ELKKb2H_4pnE-kFXE8SK-4">
          <mxGeometry relative="1" as="geometry" />
        </mxCell>
        <mxCell id="ELKKb2H_4pnE-kFXE8SK-18" value="1.2.1.1: displayResults()" style="edgeLabel;html=1;align=center;verticalAlign=middle;resizable=0;points=[];fontSize=12;" vertex="1" connectable="0" parent="ELKKb2H_4pnE-kFXE8SK-17">
          <mxGeometry x="0.566" y="-2" relative="1" as="geometry">
            <mxPoint x="49" y="-9" as="offset" />
          </mxGeometry>
        </mxCell>
        <mxCell id="ELKKb2H_4pnE-kFXE8SK-6" value=":ResultList" style="whiteSpace=wrap;html=1;align=center;fillColor=#d5e8d4;strokeColor=#82b366;" vertex="1" parent="1">
          <mxGeometry x="481" y="512" width="100" height="40" as="geometry" />
        </mxCell>
        <mxCell id="ELKKb2H_4pnE-kFXE8SK-9" style="edgeStyle=orthogonalEdgeStyle;rounded=0;orthogonalLoop=1;jettySize=auto;html=1;exitX=0.75;exitY=0;exitDx=0;exitDy=0;entryX=1;entryY=0.5;entryDx=0;entryDy=0;fontSize=12;startSize=8;endSize=8;" edge="1" parent="1" source="ELKKb2H_4pnE-kFXE8SK-3" target="ELKKb2H_4pnE-kFXE8SK-3">
          <mxGeometry relative="1" as="geometry">
            <Array as="points">
              <mxPoint x="141" y="418" />
              <mxPoint x="189" y="418" />
              <mxPoint x="189" y="457" />
            </Array>
          </mxGeometry>
        </mxCell>
        <mxCell id="ELKKb2H_4pnE-kFXE8SK-10" value="1.1: validSearch()" style="edgeLabel;html=1;align=center;verticalAlign=middle;resizable=0;points=[];fontSize=12;" vertex="1" connectable="0" parent="ELKKb2H_4pnE-kFXE8SK-9">
          <mxGeometry x="-0.3721" relative="1" as="geometry">
            <mxPoint x="6" y="-13" as="offset" />
          </mxGeometry>
        </mxCell>
        <mxCell id="ELKKb2H_4pnE-kFXE8SK-14" style="edgeStyle=orthogonalEdgeStyle;rounded=0;orthogonalLoop=1;jettySize=auto;html=1;exitX=0.75;exitY=1;exitDx=0;exitDy=0;entryX=0.5;entryY=1;entryDx=0;entryDy=0;fontSize=12;startSize=8;endSize=8;" edge="1" parent="1" source="ELKKb2H_4pnE-kFXE8SK-3" target="ELKKb2H_4pnE-kFXE8SK-3">
          <mxGeometry relative="1" as="geometry">
            <Array as="points">
              <mxPoint x="141" y="511" />
              <mxPoint x="116" y="511" />
            </Array>
          </mxGeometry>
        </mxCell>
        <mxCell id="ELKKb2H_4pnE-kFXE8SK-15" value="1.3: displayError()" style="edgeLabel;html=1;align=center;verticalAlign=middle;resizable=0;points=[];fontSize=12;" vertex="1" connectable="0" parent="ELKKb2H_4pnE-kFXE8SK-14">
          <mxGeometry x="0.161" y="1" relative="1" as="geometry">
            <mxPoint x="6" y="8" as="offset" />
          </mxGeometry>
        </mxCell>
      </root>
    </mxGraphModel>
  </diagram>
</mxfile>
